<?xml version="1.0" encoding="utf-8" standalone="no"?>
<!DOCTYPE svg PUBLIC "-//W3C//DTD SVG 1.1//EN"
  "http://www.w3.org/Graphics/SVG/1.1/DTD/svg11.dtd">
<svg xmlns:xlink="http://www.w3.org/1999/xlink" width="785.99952pt" height="469.19952pt" viewBox="0 0 785.99952 469.19952" xmlns="http://www.w3.org/2000/svg" version="1.1">
 <metadata>
  <rdf:RDF xmlns:dc="http://purl.org/dc/elements/1.1/" xmlns:cc="http://creativecommons.org/ns#" xmlns:rdf="http://www.w3.org/1999/02/22-rdf-syntax-ns#">
   <cc:Work>
    <dc:type rdf:resource="http://purl.org/dc/dcmitype/StillImage"/>
    <dc:date>2026-10-09T16:59:50.027386</dc:date>
    <dc:format>image/svg+xml</dc:format>
    <dc:creator>
     <cc:Agent>
      <dc:title>Matplotlib v3.10.9, https://matplotlib.org/</dc:title>
     </cc:Agent>
    </dc:creator>
   </cc:Work>
  </rdf:RDF>
 </metadata>
 <defs>
  <style type="text/css">*{stroke-linejoin: round; stroke-linecap: butt}</style>
 </defs>
 <g id="figure_1">
  <g id="patch_1">
   <path d="M 0 469.19952 
L 785.99952 469.19952 
L 785.99952 0 
L 0 0 
z
" style="fill: #ffffff"/>
  </g>
  <g id="axes_1">
   <g id="patch_2">
    <path d="M 64.340532 155.752226 
L 255.101189 155.752226 
Q 266.840306 155.752226 266.840306 152.441304 
L 266.840306 71.73758 
Q 266.840306 68.426658 255.101189 68.426658 
L 64.340532 68.426658 
Q 52.601415 68.426658 52.601415 71.73758 
L 52.601415 152.441304 
Q 52.601415 155.752226 64.340532 155.752226 
z
" clip-path="url(#p95ef6e89e8)" style="fill: #f7f8f9; stroke: #cdd0d2; stroke-linejoin: miter"/>
   </g>
   <g id="patch_3">
    <path d="M 291.785931 155.752226 
L 482.546587 155.752226 
Q 494.285704 155.752226 494.285704 152.441304 
L 494.285704 71.73758 
Q 494.285704 68.426658 482.546587 68.426658 
L 291.785931 68.426658 
Q 280.046813 68.426658 280.046813 71.73758 
L 280.046813 152.441304 
Q 280.046813 155.752226 291.785931 155.752226 
z
" clip-path="url(#p95ef6e89e8)" style="fill: #f7f8f9; stroke: #cdd0d2; stroke-linejoin: miter"/>
   </g>
   <g id="patch_4">
    <path d="M 548.579122 155.752226 
L 739.339778 155.752226 
Q 751.078896 155.752226 751.078896 152.441304 
L 751.078896 71.73758 
Q 751.078896 68.426658 739.339778 68.426658 
L 548.579122 68.426658 
Q 536.840005 68.426658 536.840005 71.73758 
L 536.840005 152.441304 
Q 536.840005 155.752226 548.579122 155.752226 
z
" clip-path="url(#p95ef6e89e8)" style="fill: #f7f8f9; stroke: #cdd0d2; stroke-linejoin: miter"/>
   </g>
   <g id="text_1">
    <text style="font-weight: 700; font-size: 13px; font-family: 'Noto Sans CJK SC', 'Arial', sans-serif; text-anchor: middle" x="159.720861" y="102.428119" transform="rotate(-0 159.720861 102.428119)">训练推进</text>
   </g>
   <g id="text_2">
    <text style="font-size: 9px; font-family: 'Noto Sans CJK SC', 'Arial', sans-serif; text-anchor: middle" x="159.720861" y="134.298979" transform="rotate(-0 159.720861 134.298979)">不同谱模态逐渐被拟合</text>
   </g>
   <g id="text_3">
    <text style="font-weight: 700; font-size: 13px; font-family: 'Noto Sans CJK SC', 'Arial', sans-serif; text-anchor: middle" x="387.166259" y="102.428119" transform="rotate(-0 387.166259 102.428119)">信号与噪声同时进入模型</text>
   </g>
   <g id="text_4">
    <text style="font-size: 9px; font-family: 'Noto Sans CJK SC', 'Arial', sans-serif; text-anchor: middle" x="387.166259" y="134.419917" transform="rotate(-0 387.166259 134.419917)">信号误差 B 下降；噪声损害 σ²N 上升</text>
   </g>
   <g id="text_5">
    <text style="font-weight: 700; font-size: 13px; font-family: 'Noto Sans CJK SC', 'Arial', sans-serif; text-anchor: middle" x="643.95945" y="102.428119" transform="rotate(-0 643.95945 102.428119)">风险回升</text>
   </g>
   <g id="text_6">
    <text style="font-size: 9px; font-family: 'Noto Sans CJK SC', 'Arial', sans-serif; text-anchor: middle" x="643.95945" y="134.298979" transform="rotate(-0 643.95945 134.298979)">噪声损害速度超过信号学习收益</text>
   </g>
   <g id="patch_5">
    <path d="M 257.104251 111.054779 
Q 267.940936 111.054779 276.988767 111.054779 
" style="fill: none; stroke: #62676c; stroke-width: 1.6; stroke-linecap: round"/>
    <path d="M 272.988767 109.054779 
L 276.988767 111.054779 
L 272.988767 113.054779 
" style="fill: none; stroke: #62676c; stroke-width: 1.6; stroke-linecap: round"/>
   </g>
   <g id="patch_6">
    <path d="M 484.544947 111.054779 
Q 510.060827 111.054779 533.787852 111.054779 
" style="fill: none; stroke: #62676c; stroke-width: 1.6; stroke-linecap: round"/>
    <path d="M 529.787852 109.054779 
L 533.787852 111.054779 
L 529.787852 113.054779 
" style="fill: none; stroke: #62676c; stroke-width: 1.6; stroke-linecap: round"/>
   </g>
   <g id="text_7">
    <text style="font-size: 11px; font-family: 'Noto Sans CJK SC', 'Arial', sans-serif; text-anchor: middle" x="409.177104" y="193.82783" transform="rotate(-0 409.177104 193.82783)">最低点：−B′(t*) = σ²N′(t*)。此前已有噪声损害，只是被信号收益遮住。</text>
   </g>
   <g id="text_8">
    <text style="font-size: 12px; font-family: 'Noto Sans CJK SC', 'Arial', sans-serif; text-anchor: start" x="42.329688" y="17.07375" transform="rotate(-0 42.329688 17.07375)">D2 机制图像 · 连线表示解析逻辑；下方曲线为真实保存数据（n=64，σ²=1，seed411）</text>
   </g>
  </g>
  <g id="axes_2">
   <g id="patch_7">
    <path d="M 42.329688 430.49952 
L 249.9242 430.49952 
L 249.9242 250.558106 
L 42.329688 250.558106 
z
" style="fill: #ffffff"/>
   </g>
   <g id="matplotlib.axis_1">
    <g id="xtick_1">
     <g id="line2d_1">
      <path d="M 42.329688 430.49952 
L 42.329688 250.558106 
" clip-path="url(#pd2dc344786)" style="fill: none; stroke: #b0b0b0; stroke-opacity: 0.12; stroke-width: 0.8; stroke-linecap: square"/>
     </g>
     <g id="line2d_2">
      <defs>
       <path id="md9c7c4520b" d="M 0 0 
L 0 3.5 
" style="stroke: #000000; stroke-width: 0.8"/>
      </defs>
      <g>
       <use xlink:href="#md9c7c4520b" x="42.329688" y="430.49952" style="stroke: #000000; stroke-width: 0.8"/>
      </g>
     </g>
     <g id="text_9">
      <text style="font-size: 10px; font-family: 'Noto Sans CJK SC', 'Arial', sans-serif; text-anchor: middle" x="42.329688" y="445.458895" transform="rotate(-0 42.329688 445.458895)">0</text>
     </g>
    </g>
    <g id="xtick_2">
     <g id="line2d_3">
      <path d="M 94.228316 430.49952 
L 94.228316 250.558106 
" clip-path="url(#pd2dc344786)" style="fill: none; stroke: #b0b0b0; stroke-opacity: 0.12; stroke-width: 0.8; stroke-linecap: square"/>
     </g>
     <g id="line2d_4">
      <g>
       <use xlink:href="#md9c7c4520b" x="94.228316" y="430.49952" style="stroke: #000000; stroke-width: 0.8"/>
      </g>
     </g>
     <g id="text_10">
      <text style="font-size: 10px; font-family: 'Noto Sans CJK SC', 'Arial', sans-serif; text-anchor: middle" x="94.228316" y="445.458895" transform="rotate(-0 94.228316 445.458895)">1</text>
     </g>
    </g>
    <g id="xtick_3">
     <g id="line2d_5">
      <path d="M 146.126944 430.49952 
L 146.126944 250.558106 
" clip-path="url(#pd2dc344786)" style="fill: none; stroke: #b0b0b0; stroke-opacity: 0.12; stroke-width: 0.8; stroke-linecap: square"/>
     </g>
     <g id="line2d_6">
      <g>
       <use xlink:href="#md9c7c4520b" x="146.126944" y="430.49952" style="stroke: #000000; stroke-width: 0.8"/>
      </g>
     </g>
     <g id="text_11">
      <text style="font-size: 10px; font-family: 'Noto Sans CJK SC', 'Arial', sans-serif; text-anchor: middle" x="146.126944" y="445.458895" transform="rotate(-0 146.126944 445.458895)">2</text>
     </g>
    </g>
    <g id="xtick_4">
     <g id="line2d_7">
      <path d="M 198.025572 430.49952 
L 198.025572 250.558106 
" clip-path="url(#pd2dc344786)" style="fill: none; stroke: #b0b0b0; stroke-opacity: 0.12; stroke-width: 0.8; stroke-linecap: square"/>
     </g>
     <g id="line2d_8">
      <g>
       <use xlink:href="#md9c7c4520b" x="198.025572" y="430.49952" style="stroke: #000000; stroke-width: 0.8"/>
      </g>
     </g>
     <g id="text_12">
      <text style="font-size: 10px; font-family: 'Noto Sans CJK SC', 'Arial', sans-serif; text-anchor: middle" x="198.025572" y="445.458895" transform="rotate(-0 198.025572 445.458895)">3</text>
     </g>
    </g>
    <g id="xtick_5">
     <g id="line2d_9">
      <path d="M 249.9242 430.49952 
L 249.9242 250.558106 
" clip-path="url(#pd2dc344786)" style="fill: none; stroke: #b0b0b0; stroke-opacity: 0.12; stroke-width: 0.8; stroke-linecap: square"/>
     </g>
     <g id="line2d_10">
      <g>
       <use xlink:href="#md9c7c4520b" x="249.9242" y="430.49952" style="stroke: #000000; stroke-width: 0.8"/>
      </g>
     </g>
     <g id="text_13">
      <text style="font-size: 10px; font-family: 'Noto Sans CJK SC', 'Arial', sans-serif; text-anchor: middle" x="249.9242" y="445.458895" transform="rotate(-0 249.9242 445.458895)">4</text>
     </g>
    </g>
    <g id="text_14">
     <text style="font-size: 10px; font-family: 'Noto Sans CJK SC', 'Arial', sans-serif; text-anchor: middle" x="146.126944" y="459.708895" transform="rotate(-0 146.126944 459.708895)">t / t*</text>
    </g>
   </g>
   <g id="matplotlib.axis_2">
    <g id="ytick_1">
     <g id="line2d_11">
      <path d="M 42.329688 430.49952 
L 249.9242 430.49952 
" clip-path="url(#pd2dc344786)" style="fill: none; stroke: #b0b0b0; stroke-opacity: 0.12; stroke-width: 0.8; stroke-linecap: square"/>
     </g>
     <g id="line2d_12">
      <defs>
       <path id="me29feb3a7a" d="M 0 0 
L -3.5 0 
" style="stroke: #000000; stroke-width: 0.8"/>
      </defs>
      <g>
       <use xlink:href="#me29feb3a7a" x="42.329688" y="430.49952" style="stroke: #000000; stroke-width: 0.8"/>
      </g>
     </g>
     <g id="text_15">
      <text style="font-size: 10px; font-family: 'Noto Sans CJK SC', 'Arial', sans-serif; text-anchor: end" x="35.329688" y="434.479207" transform="rotate(-0 35.329688 434.479207)">0.0</text>
     </g>
    </g>
    <g id="ytick_2">
     <g id="line2d_13">
      <path d="M 42.329688 390.512539 
L 249.9242 390.512539 
" clip-path="url(#pd2dc344786)" style="fill: none; stroke: #b0b0b0; stroke-opacity: 0.12; stroke-width: 0.8; stroke-linecap: square"/>
     </g>
     <g id="line2d_14">
      <g>
       <use xlink:href="#me29feb3a7a" x="42.329688" y="390.512539" style="stroke: #000000; stroke-width: 0.8"/>
      </g>
     </g>
     <g id="text_16">
      <text style="font-size: 10px; font-family: 'Noto Sans CJK SC', 'Arial', sans-serif; text-anchor: end" x="35.329688" y="394.492227" transform="rotate(-0 35.329688 394.492227)">0.1</text>
     </g>
    </g>
    <g id="ytick_3">
     <g id="line2d_15">
      <path d="M 42.329688 350.525558 
L 249.9242 350.525558 
" clip-path="url(#pd2dc344786)" style="fill: none; stroke: #b0b0b0; stroke-opacity: 0.12; stroke-width: 0.8; stroke-linecap: square"/>
     </g>
     <g id="line2d_16">
      <g>
       <use xlink:href="#me29feb3a7a" x="42.329688" y="350.525558" style="stroke: #000000; stroke-width: 0.8"/>
      </g>
     </g>
     <g id="text_17">
      <text style="font-size: 10px; font-family: 'Noto Sans CJK SC', 'Arial', sans-serif; text-anchor: end" x="35.329688" y="354.505246" transform="rotate(-0 35.329688 354.505246)">0.2</text>
     </g>
    </g>
    <g id="ytick_4">
     <g id="line2d_17">
      <path d="M 42.329688 310.538577 
L 249.9242 310.538577 
" clip-path="url(#pd2dc344786)" style="fill: none; stroke: #b0b0b0; stroke-opacity: 0.12; stroke-width: 0.8; stroke-linecap: square"/>
     </g>
     <g id="line2d_18">
      <g>
       <use xlink:href="#me29feb3a7a" x="42.329688" y="310.538577" style="stroke: #000000; stroke-width: 0.8"/>
      </g>
     </g>
     <g id="text_18">
      <text style="font-size: 10px; font-family: 'Noto Sans CJK SC', 'Arial', sans-serif; text-anchor: end" x="35.329688" y="314.518265" transform="rotate(-0 35.329688 314.518265)">0.3</text>
     </g>
    </g>
    <g id="ytick_5">
     <g id="line2d_19">
      <path d="M 42.329688 270.551596 
L 249.9242 270.551596 
" clip-path="url(#pd2dc344786)" style="fill: none; stroke: #b0b0b0; stroke-opacity: 0.12; stroke-width: 0.8; stroke-linecap: square"/>
     </g>
     <g id="line2d_20">
      <g>
       <use xlink:href="#me29feb3a7a" x="42.329688" y="270.551596" style="stroke: #000000; stroke-width: 0.8"/>
      </g>
     </g>
     <g id="text_19">
      <text style="font-size: 10px; font-family: 'Noto Sans CJK SC', 'Arial', sans-serif; text-anchor: end" x="35.329688" y="274.531284" transform="rotate(-0 35.329688 274.531284)">0.4</text>
     </g>
    </g>
    <g id="text_20">
     <text style="font-size: 10px; font-family: 'Noto Sans CJK SC', 'Arial', sans-serif; text-anchor: middle" x="15.159375" y="340.528813" transform="rotate(-90 15.159375 340.528813)">MSE</text>
    </g>
   </g>
   <g id="line2d_21">
    <path d="M 42.329688 90.670509 
L 43.092903 156.867697 
L 43.856118 206.919105 
L 44.619333 244.840731 
L 45.382548 273.644664 
L 46.145763 295.591027 
L 46.908978 312.376416 
L 47.672193 325.274938 
L 48.435408 335.243802 
L 49.198624 343.002427 
L 49.961839 349.091729 
L 50.725054 353.918576 
L 51.488269 357.789131 
L 52.251484 360.933877 
L 53.014699 363.526406 
L 54.541129 367.545864 
L 56.06756 370.55359 
L 57.59399 372.952018 
L 59.12042 374.971424 
L 61.410065 377.56388 
L 63.699711 379.827116 
L 66.752571 382.51223 
L 69.805432 384.918342 
L 73.621507 387.613832 
L 77.437583 390.016673 
L 81.253659 392.167643 
L 85.832949 394.461447 
L 90.41224 396.484919 
L 94.991531 398.276239 
L 100.334037 400.115033 
L 105.676542 401.723336 
L 111.782263 403.323535 
L 118.651199 404.870778 
L 126.283351 406.332342 
L 134.678717 407.6873 
L 143.837298 408.925149 
L 153.759095 410.043822 
L 165.207322 411.112495 
L 178.945194 412.158001 
L 194.972711 413.138906 
L 214.053089 414.06927 
L 236.949543 414.951464 
L 265.188502 415.804075 
L 299.533183 416.610809 
L 342.273229 417.384801 
L 394.935073 418.109152 
L 423.937247 418.431419 
L 423.937247 418.431419 
" clip-path="url(#pd2dc344786)" style="fill: none; stroke: #0072b2; stroke-width: 1.8; stroke-linecap: square"/>
   </g>
   <g id="line2d_22">
    <path d="M 42.329688 430.49952 
L 44.619333 422.860551 
L 46.145763 419.572121 
L 48.435408 415.211257 
L 50.725054 411.275405 
L 53.014699 407.864087 
L 55.304345 404.95572 
L 57.59399 402.471607 
L 59.883635 400.32633 
L 62.173281 398.445448 
L 65.226141 396.247744 
L 68.279002 394.310709 
L 72.095077 392.14855 
L 76.674368 389.818568 
L 82.016874 387.351821 
L 88.122595 384.768965 
L 94.991531 382.091871 
L 102.623682 379.347546 
L 111.019048 376.56631 
L 120.17763 373.777802 
L 130.099426 371.007483 
L 140.784438 368.274724 
L 152.232665 365.592445 
L 164.444107 362.967805 
L 177.418764 360.403391 
L 191.919851 357.764979 
L 207.947368 355.080174 
L 225.501316 352.369044 
L 244.581694 349.646074 
L 265.951718 346.825124 
L 288.848171 344.026311 
L 314.03427 341.17296 
L 341.510014 338.290586 
L 370.512189 335.474467 
L 401.804009 332.665216 
L 423.937247 330.807258 
L 423.937247 330.807258 
" clip-path="url(#pd2dc344786)" style="fill: none; stroke: #d55e00; stroke-width: 1.8; stroke-linecap: square"/>
   </g>
   <g id="line2d_23">
    <path d="M 94.228316 430.49952 
L 94.228316 250.558106 
" clip-path="url(#pd2dc344786)" style="fill: none; stroke-dasharray: 1,1.65; stroke-dashoffset: 0; stroke: #62676c"/>
   </g>
   <g id="patch_8">
    <path d="M 42.329688 430.49952 
L 42.329688 250.558106 
" style="fill: none; stroke: #000000; stroke-width: 0.8; stroke-linejoin: miter; stroke-linecap: square"/>
   </g>
   <g id="patch_9">
    <path d="M 42.329688 430.49952 
L 249.9242 430.49952 
" style="fill: none; stroke: #000000; stroke-width: 0.8; stroke-linejoin: miter; stroke-linecap: square"/>
   </g>
   <g id="text_21">
    <text style="font-size: 12px; font-family: 'Noto Sans CJK SC', 'Arial', sans-serif; text-anchor: middle" x="146.126944" y="244.558106" transform="rotate(-0 146.126944 244.558106)">rise 前已经累积</text>
   </g>
   <g id="legend_1">
    <g id="line2d_24">
     <path d="M 166.38045 261.325606 
L 174.38045 261.325606 
L 182.38045 261.325606 
" style="fill: none; stroke: #0072b2; stroke-width: 1.8; stroke-linecap: square"/>
    </g>
    <g id="text_22">
     <text style="font-size: 8px; font-family: 'Noto Sans CJK SC', 'Arial', sans-serif; text-anchor: start" x="188.78045" y="264.125606" transform="rotate(-0 188.78045 264.125606)">B：信号误差</text>
    </g>
    <g id="line2d_25">
     <path d="M 166.38045 273.525606 
L 174.38045 273.525606 
L 182.38045 273.525606 
" style="fill: none; stroke: #d55e00; stroke-width: 1.8; stroke-linecap: square"/>
    </g>
    <g id="text_23">
     <text style="font-size: 8px; font-family: 'Noto Sans CJK SC', 'Arial', sans-serif; text-anchor: start" x="188.78045" y="276.325606" transform="rotate(-0 188.78045 276.325606)">σ²N：噪声损害</text>
    </g>
   </g>
  </g>
  <g id="axes_3">
   <g id="patch_10">
    <path d="M 305.379848 430.49952 
L 512.97436 430.49952 
L 512.97436 250.558106 
L 305.379848 250.558106 
z
" style="fill: #ffffff"/>
   </g>
   <g id="matplotlib.axis_3">
    <g id="xtick_6">
     <g id="line2d_26">
      <path d="M 305.379848 430.49952 
L 305.379848 250.558106 
" clip-path="url(#p5e5f54a755)" style="fill: none; stroke: #b0b0b0; stroke-opacity: 0.12; stroke-width: 0.8; stroke-linecap: square"/>
     </g>
     <g id="line2d_27">
      <g>
       <use xlink:href="#md9c7c4520b" x="305.379848" y="430.49952" style="stroke: #000000; stroke-width: 0.8"/>
      </g>
     </g>
     <g id="text_24">
      <text style="font-size: 10px; font-family: 'Noto Sans CJK SC', 'Arial', sans-serif; text-anchor: middle" x="305.379848" y="445.458895" transform="rotate(-0 305.379848 445.458895)">0</text>
     </g>
    </g>
    <g id="xtick_7">
     <g id="line2d_28">
      <path d="M 346.89875 430.49952 
L 346.89875 250.558106 
" clip-path="url(#p5e5f54a755)" style="fill: none; stroke: #b0b0b0; stroke-opacity: 0.12; stroke-width: 0.8; stroke-linecap: square"/>
     </g>
     <g id="line2d_29">
      <g>
       <use xlink:href="#md9c7c4520b" x="346.89875" y="430.49952" style="stroke: #000000; stroke-width: 0.8"/>
      </g>
     </g>
     <g id="text_25">
      <text style="font-size: 10px; font-family: 'Noto Sans CJK SC', 'Arial', sans-serif; text-anchor: middle" x="346.89875" y="445.458895" transform="rotate(-0 346.89875 445.458895)">1</text>
     </g>
    </g>
    <g id="xtick_8">
     <g id="line2d_30">
      <path d="M 388.417653 430.49952 
L 388.417653 250.558106 
" clip-path="url(#p5e5f54a755)" style="fill: none; stroke: #b0b0b0; stroke-opacity: 0.12; stroke-width: 0.8; stroke-linecap: square"/>
     </g>
     <g id="line2d_31">
      <g>
       <use xlink:href="#md9c7c4520b" x="388.417653" y="430.49952" style="stroke: #000000; stroke-width: 0.8"/>
      </g>
     </g>
     <g id="text_26">
      <text style="font-size: 10px; font-family: 'Noto Sans CJK SC', 'Arial', sans-serif; text-anchor: middle" x="388.417653" y="445.458895" transform="rotate(-0 388.417653 445.458895)">2</text>
     </g>
    </g>
    <g id="xtick_9">
     <g id="line2d_32">
      <path d="M 429.936555 430.49952 
L 429.936555 250.558106 
" clip-path="url(#p5e5f54a755)" style="fill: none; stroke: #b0b0b0; stroke-opacity: 0.12; stroke-width: 0.8; stroke-linecap: square"/>
     </g>
     <g id="line2d_33">
      <g>
       <use xlink:href="#md9c7c4520b" x="429.936555" y="430.49952" style="stroke: #000000; stroke-width: 0.8"/>
      </g>
     </g>
     <g id="text_27">
      <text style="font-size: 10px; font-family: 'Noto Sans CJK SC', 'Arial', sans-serif; text-anchor: middle" x="429.936555" y="445.458895" transform="rotate(-0 429.936555 445.458895)">3</text>
     </g>
    </g>
    <g id="xtick_10">
     <g id="line2d_34">
      <path d="M 471.455458 430.49952 
L 471.455458 250.558106 
" clip-path="url(#p5e5f54a755)" style="fill: none; stroke: #b0b0b0; stroke-opacity: 0.12; stroke-width: 0.8; stroke-linecap: square"/>
     </g>
     <g id="line2d_35">
      <g>
       <use xlink:href="#md9c7c4520b" x="471.455458" y="430.49952" style="stroke: #000000; stroke-width: 0.8"/>
      </g>
     </g>
     <g id="text_28">
      <text style="font-size: 10px; font-family: 'Noto Sans CJK SC', 'Arial', sans-serif; text-anchor: middle" x="471.455458" y="445.458895" transform="rotate(-0 471.455458 445.458895)">4</text>
     </g>
    </g>
    <g id="xtick_11">
     <g id="line2d_36">
      <path d="M 512.97436 430.49952 
L 512.97436 250.558106 
" clip-path="url(#p5e5f54a755)" style="fill: none; stroke: #b0b0b0; stroke-opacity: 0.12; stroke-width: 0.8; stroke-linecap: square"/>
     </g>
     <g id="line2d_37">
      <g>
       <use xlink:href="#md9c7c4520b" x="512.97436" y="430.49952" style="stroke: #000000; stroke-width: 0.8"/>
      </g>
     </g>
     <g id="text_29">
      <text style="font-size: 10px; font-family: 'Noto Sans CJK SC', 'Arial', sans-serif; text-anchor: middle" x="512.97436" y="445.458895" transform="rotate(-0 512.97436 445.458895)">5</text>
     </g>
    </g>
    <g id="text_30">
     <text style="font-size: 10px; font-family: 'Noto Sans CJK SC', 'Arial', sans-serif; text-anchor: middle" x="409.177104" y="459.708895" transform="rotate(-0 409.177104 459.708895)">t / t*</text>
    </g>
   </g>
   <g id="matplotlib.axis_4">
    <g id="ytick_6">
     <g id="line2d_38">
      <path d="M 305.379848 414.852441 
L 512.97436 414.852441 
" clip-path="url(#p5e5f54a755)" style="fill: none; stroke: #b0b0b0; stroke-opacity: 0.12; stroke-width: 0.8; stroke-linecap: square"/>
     </g>
     <g id="line2d_39">
      <g>
       <use xlink:href="#me29feb3a7a" x="305.379848" y="414.852441" style="stroke: #000000; stroke-width: 0.8"/>
      </g>
     </g>
     <g id="text_31">
      <text style="font-size: 10px; font-family: 'Noto Sans CJK SC', 'Arial', sans-serif; text-anchor: end" x="298.379848" y="418.832128" transform="rotate(-0 298.379848 418.832128)">0.15</text>
     </g>
    </g>
    <g id="ytick_7">
     <g id="line2d_40">
      <path d="M 305.379848 375.734742 
L 512.97436 375.734742 
" clip-path="url(#p5e5f54a755)" style="fill: none; stroke: #b0b0b0; stroke-opacity: 0.12; stroke-width: 0.8; stroke-linecap: square"/>
     </g>
     <g id="line2d_41">
      <g>
       <use xlink:href="#me29feb3a7a" x="305.379848" y="375.734742" style="stroke: #000000; stroke-width: 0.8"/>
      </g>
     </g>
     <g id="text_32">
      <text style="font-size: 10px; font-family: 'Noto Sans CJK SC', 'Arial', sans-serif; text-anchor: end" x="298.379848" y="379.714429" transform="rotate(-0 298.379848 379.714429)">0.20</text>
     </g>
    </g>
    <g id="ytick_8">
     <g id="line2d_42">
      <path d="M 305.379848 336.617043 
L 512.97436 336.617043 
" clip-path="url(#p5e5f54a755)" style="fill: none; stroke: #b0b0b0; stroke-opacity: 0.12; stroke-width: 0.8; stroke-linecap: square"/>
     </g>
     <g id="line2d_43">
      <g>
       <use xlink:href="#me29feb3a7a" x="305.379848" y="336.617043" style="stroke: #000000; stroke-width: 0.8"/>
      </g>
     </g>
     <g id="text_33">
      <text style="font-size: 10px; font-family: 'Noto Sans CJK SC', 'Arial', sans-serif; text-anchor: end" x="298.379848" y="340.596731" transform="rotate(-0 298.379848 340.596731)">0.25</text>
     </g>
    </g>
    <g id="ytick_9">
     <g id="line2d_44">
      <path d="M 305.379848 297.499344 
L 512.97436 297.499344 
" clip-path="url(#p5e5f54a755)" style="fill: none; stroke: #b0b0b0; stroke-opacity: 0.12; stroke-width: 0.8; stroke-linecap: square"/>
     </g>
     <g id="line2d_45">
      <g>
       <use xlink:href="#me29feb3a7a" x="305.379848" y="297.499344" style="stroke: #000000; stroke-width: 0.8"/>
      </g>
     </g>
     <g id="text_34">
      <text style="font-size: 10px; font-family: 'Noto Sans CJK SC', 'Arial', sans-serif; text-anchor: end" x="298.379848" y="301.479032" transform="rotate(-0 298.379848 301.479032)">0.30</text>
     </g>
    </g>
    <g id="ytick_10">
     <g id="line2d_46">
      <path d="M 305.379848 258.381646 
L 512.97436 258.381646 
" clip-path="url(#p5e5f54a755)" style="fill: none; stroke: #b0b0b0; stroke-opacity: 0.12; stroke-width: 0.8; stroke-linecap: square"/>
     </g>
     <g id="line2d_47">
      <g>
       <use xlink:href="#me29feb3a7a" x="305.379848" y="258.381646" style="stroke: #000000; stroke-width: 0.8"/>
      </g>
     </g>
     <g id="text_35">
      <text style="font-size: 10px; font-family: 'Noto Sans CJK SC', 'Arial', sans-serif; text-anchor: end" x="298.379848" y="262.361333" transform="rotate(-0 298.379848 262.361333)">0.35</text>
     </g>
    </g>
    <g id="text_36">
     <text style="font-size: 10px; font-family: 'Noto Sans CJK SC', 'Arial', sans-serif; text-anchor: middle" x="272.659535" y="340.528813" transform="rotate(-90 272.659535 340.528813)">期望干净风险</text>
    </g>
   </g>
   <g id="line2d_48">
    <path d="M 306.037849 -1 
L 306.600992 84.021084 
L 307.211564 154.01427 
L 307.822136 206.990135 
L 308.432708 246.874443 
L 309.04328 276.792373 
L 309.653852 299.184748 
L 310.264424 315.923834 
L 310.874996 328.430031 
L 311.485568 337.774216 
L 312.096141 344.760856 
L 312.706713 349.992941 
L 313.317285 353.921729 
L 313.927857 356.884466 
L 314.538429 359.132845 
L 315.149001 360.854421 
L 315.759573 362.188698 
L 316.980717 364.082593 
L 318.201862 365.359099 
L 319.423006 366.312487 
L 321.254722 367.455068 
L 324.307582 369.05787 
L 327.971015 370.73175 
L 331.023876 371.909574 
L 334.076736 372.860443 
L 337.129596 373.577289 
L 340.182457 374.069342 
L 343.235317 374.354813 
L 346.89875 374.45566 
L 350.562183 374.32946 
L 354.836187 373.943565 
L 359.720764 373.249332 
L 365.215913 372.219854 
L 371.321634 370.849558 
L 379.259071 368.826222 
L 389.638797 365.936807 
L 410.398248 359.864357 
L 433.599988 353.162368 
L 451.91715 348.109869 
L 469.623741 343.459166 
L 487.330332 339.035619 
L 505.647495 334.686483 
L 524.57523 330.419453 
L 544.113537 326.240842 
L 564.262416 322.156579 
L 585.021867 318.172423 
L 606.391891 314.2938 
L 610.665895 313.543957 
L 610.665895 313.543957 
" clip-path="url(#p5e5f54a755)" style="fill: none; stroke: #62676c; stroke-width: 1.8; stroke-linecap: square"/>
   </g>
   <g id="patch_11">
    <path d="M 305.379848 430.49952 
L 305.379848 250.558106 
" style="fill: none; stroke: #000000; stroke-width: 0.8; stroke-linejoin: miter; stroke-linecap: square"/>
   </g>
   <g id="patch_12">
    <path d="M 305.379848 430.49952 
L 512.97436 430.49952 
" style="fill: none; stroke: #000000; stroke-width: 0.8; stroke-linejoin: miter; stroke-linecap: square"/>
   </g>
   <g id="patch_13">
    <path d="M 338.188729 399.042738 
Q 342.209352 387.693124 345.931309 377.186599 
" style="fill: none; stroke: #62676c; stroke-width: 0.8; stroke-linecap: round"/>
    <path d="M 343.354607 379.668655 
L 345.931309 377.186599 
L 346.370933 380.737195 
" style="fill: none; stroke: #62676c; stroke-width: 0.8; stroke-linecap: round"/>
   </g>
   <g id="text_37">
    <text style="font-size: 8px; font-family: 'Noto Sans CJK SC', 'Arial', sans-serif" transform="translate(313.683628 409.29071)">最低点</text>
    <text style="font-size: 8px; font-family: 'Noto Sans CJK SC', 'Arial', sans-serif" transform="translate(313.683628 418.76421)">一阶导换号</text>
   </g>
   <g id="patch_14">
    <path d="M 411.322 295.49601 
Q 408.209515 327.491635 405.183629 358.597035 
" style="fill: none; stroke: #62676c; stroke-width: 0.8; stroke-linecap: round"/>
    <path d="M 407.085941 355.566984 
L 405.183629 358.597035 
L 403.900975 355.257155 
" style="fill: none; stroke: #62676c; stroke-width: 0.8; stroke-linecap: round"/>
   </g>
   <g id="text_38">
    <text style="font-size: 8px; font-family: 'Noto Sans CJK SC', 'Arial', sans-serif" transform="translate(392.569543 280.202305)">数学拐点</text>
    <text style="font-size: 8px; font-family: 'Noto Sans CJK SC', 'Arial', sans-serif" transform="translate(392.569543 289.675805)">二阶导换号</text>
   </g>
   <g id="text_39">
    <text style="font-size: 12px; font-family: 'Noto Sans CJK SC', 'Arial', sans-serif; text-anchor: middle" x="409.177104" y="244.558106" transform="rotate(-0 409.177104 244.558106)">最低点 ≠ 数学拐点</text>
   </g>
   <g id="PathCollection_1">
    <defs>
     <path id="C0_0_2871cb9b74" d="M 0 2.738613 
C 0.726289 2.738613 1.422928 2.450055 1.936492 1.936492 
C 2.450055 1.422928 2.738613 0.726289 2.738613 -0 
C 2.738613 -0.726289 2.450055 -1.422928 1.936492 -1.936492 
C 1.422928 -2.450055 0.726289 -2.738613 0 -2.738613 
C -0.726289 -2.738613 -1.422928 -2.450055 -1.936492 -1.936492 
C -2.450055 -1.422928 -2.738613 -0.726289 -2.738613 0 
C -2.738613 0.726289 -2.450055 1.422928 -1.936492 1.936492 
C -1.422928 2.450055 -0.726289 2.738613 0 2.738613 
z
"/>
    </defs>
    <g clip-path="url(#p5e5f54a755)">
     <use xlink:href="#C0_0_2871cb9b74" x="346.89875" y="374.45566" style="fill: #009e73; stroke: #009e73"/>
    </g>
    <g clip-path="url(#p5e5f54a755)">
     <use xlink:href="#C0_0_2871cb9b74" x="404.903099" y="361.48082" style="fill: #d55e00; stroke: #d55e00"/>
    </g>
   </g>
  </g>
  <g id="axes_4">
   <g id="patch_15">
    <path d="M 568.430008 430.49952 
L 776.02452 430.49952 
L 776.02452 250.558106 
L 568.430008 250.558106 
z
" style="fill: #ffffff"/>
   </g>
   <g id="matplotlib.axis_5">
    <g id="xtick_12">
     <g id="line2d_49">
      <path d="M 568.430008 430.49952 
L 568.430008 250.558106 
" clip-path="url(#p80954273ff)" style="fill: none; stroke: #b0b0b0; stroke-opacity: 0.12; stroke-width: 0.8; stroke-linecap: square"/>
     </g>
     <g id="line2d_50">
      <g>
       <use xlink:href="#md9c7c4520b" x="568.430008" y="430.49952" style="stroke: #000000; stroke-width: 0.8"/>
      </g>
     </g>
     <g id="text_40">
      <text style="font-size: 10px; font-family: 'Noto Sans CJK SC', 'Arial', sans-serif; text-anchor: middle" x="568.430008" y="445.458895" transform="rotate(-0 568.430008 445.458895)">0</text>
     </g>
    </g>
    <g id="xtick_13">
     <g id="line2d_51">
      <path d="M 609.94891 430.49952 
L 609.94891 250.558106 
" clip-path="url(#p80954273ff)" style="fill: none; stroke: #b0b0b0; stroke-opacity: 0.12; stroke-width: 0.8; stroke-linecap: square"/>
     </g>
     <g id="line2d_52">
      <g>
       <use xlink:href="#md9c7c4520b" x="609.94891" y="430.49952" style="stroke: #000000; stroke-width: 0.8"/>
      </g>
     </g>
     <g id="text_41">
      <text style="font-size: 10px; font-family: 'Noto Sans CJK SC', 'Arial', sans-serif; text-anchor: middle" x="609.94891" y="445.458895" transform="rotate(-0 609.94891 445.458895)">1</text>
     </g>
    </g>
    <g id="xtick_14">
     <g id="line2d_53">
      <path d="M 651.467813 430.49952 
L 651.467813 250.558106 
" clip-path="url(#p80954273ff)" style="fill: none; stroke: #b0b0b0; stroke-opacity: 0.12; stroke-width: 0.8; stroke-linecap: square"/>
     </g>
     <g id="line2d_54">
      <g>
       <use xlink:href="#md9c7c4520b" x="651.467813" y="430.49952" style="stroke: #000000; stroke-width: 0.8"/>
      </g>
     </g>
     <g id="text_42">
      <text style="font-size: 10px; font-family: 'Noto Sans CJK SC', 'Arial', sans-serif; text-anchor: middle" x="651.467813" y="445.458895" transform="rotate(-0 651.467813 445.458895)">2</text>
     </g>
    </g>
    <g id="xtick_15">
     <g id="line2d_55">
      <path d="M 692.986715 430.49952 
L 692.986715 250.558106 
" clip-path="url(#p80954273ff)" style="fill: none; stroke: #b0b0b0; stroke-opacity: 0.12; stroke-width: 0.8; stroke-linecap: square"/>
     </g>
     <g id="line2d_56">
      <g>
       <use xlink:href="#md9c7c4520b" x="692.986715" y="430.49952" style="stroke: #000000; stroke-width: 0.8"/>
      </g>
     </g>
     <g id="text_43">
      <text style="font-size: 10px; font-family: 'Noto Sans CJK SC', 'Arial', sans-serif; text-anchor: middle" x="692.986715" y="445.458895" transform="rotate(-0 692.986715 445.458895)">3</text>
     </g>
    </g>
    <g id="xtick_16">
     <g id="line2d_57">
      <path d="M 734.505618 430.49952 
L 734.505618 250.558106 
" clip-path="url(#p80954273ff)" style="fill: none; stroke: #b0b0b0; stroke-opacity: 0.12; stroke-width: 0.8; stroke-linecap: square"/>
     </g>
     <g id="line2d_58">
      <g>
       <use xlink:href="#md9c7c4520b" x="734.505618" y="430.49952" style="stroke: #000000; stroke-width: 0.8"/>
      </g>
     </g>
     <g id="text_44">
      <text style="font-size: 10px; font-family: 'Noto Sans CJK SC', 'Arial', sans-serif; text-anchor: middle" x="734.505618" y="445.458895" transform="rotate(-0 734.505618 445.458895)">4</text>
     </g>
    </g>
    <g id="xtick_17">
     <g id="line2d_59">
      <path d="M 776.02452 430.49952 
L 776.02452 250.558106 
" clip-path="url(#p80954273ff)" style="fill: none; stroke: #b0b0b0; stroke-opacity: 0.12; stroke-width: 0.8; stroke-linecap: square"/>
     </g>
     <g id="line2d_60">
      <g>
       <use xlink:href="#md9c7c4520b" x="776.02452" y="430.49952" style="stroke: #000000; stroke-width: 0.8"/>
      </g>
     </g>
     <g id="text_45">
      <text style="font-size: 10px; font-family: 'Noto Sans CJK SC', 'Arial', sans-serif; text-anchor: middle" x="776.02452" y="445.458895" transform="rotate(-0 776.02452 445.458895)">5</text>
     </g>
    </g>
    <g id="text_46">
     <text style="font-size: 10px; font-family: 'Noto Sans CJK SC', 'Arial', sans-serif; text-anchor: middle" x="672.227264" y="459.708895" transform="rotate(-0 672.227264 459.708895)">t / t*</text>
    </g>
   </g>
   <g id="matplotlib.axis_6">
    <g id="ytick_11">
     <g id="line2d_61">
      <path d="M 568.430008 430.49952 
L 776.02452 430.49952 
" clip-path="url(#p80954273ff)" style="fill: none; stroke: #b0b0b0; stroke-opacity: 0.12; stroke-width: 0.8; stroke-linecap: square"/>
     </g>
     <g id="line2d_62">
      <g>
       <use xlink:href="#me29feb3a7a" x="568.430008" y="430.49952" style="stroke: #000000; stroke-width: 0.8"/>
      </g>
     </g>
     <g id="text_47">
      <text style="font-size: 10px; font-family: 'Noto Sans CJK SC', 'Arial', sans-serif; text-anchor: end" x="561.430008" y="434.479207" transform="rotate(-0 561.430008 434.479207)">0.0</text>
     </g>
    </g>
    <g id="ytick_12">
     <g id="line2d_63">
      <path d="M 568.430008 406.507331 
L 776.02452 406.507331 
" clip-path="url(#p80954273ff)" style="fill: none; stroke: #b0b0b0; stroke-opacity: 0.12; stroke-width: 0.8; stroke-linecap: square"/>
     </g>
     <g id="line2d_64">
      <g>
       <use xlink:href="#me29feb3a7a" x="568.430008" y="406.507331" style="stroke: #000000; stroke-width: 0.8"/>
      </g>
     </g>
     <g id="text_48">
      <text style="font-size: 10px; font-family: 'Noto Sans CJK SC', 'Arial', sans-serif; text-anchor: end" x="561.430008" y="410.487019" transform="rotate(-0 561.430008 410.487019)">0.1</text>
     </g>
    </g>
    <g id="ytick_13">
     <g id="line2d_65">
      <path d="M 568.430008 382.515143 
L 776.02452 382.515143 
" clip-path="url(#p80954273ff)" style="fill: none; stroke: #b0b0b0; stroke-opacity: 0.12; stroke-width: 0.8; stroke-linecap: square"/>
     </g>
     <g id="line2d_66">
      <g>
       <use xlink:href="#me29feb3a7a" x="568.430008" y="382.515143" style="stroke: #000000; stroke-width: 0.8"/>
      </g>
     </g>
     <g id="text_49">
      <text style="font-size: 10px; font-family: 'Noto Sans CJK SC', 'Arial', sans-serif; text-anchor: end" x="561.430008" y="386.49483" transform="rotate(-0 561.430008 386.49483)">0.2</text>
     </g>
    </g>
    <g id="ytick_14">
     <g id="line2d_67">
      <path d="M 568.430008 358.522954 
L 776.02452 358.522954 
" clip-path="url(#p80954273ff)" style="fill: none; stroke: #b0b0b0; stroke-opacity: 0.12; stroke-width: 0.8; stroke-linecap: square"/>
     </g>
     <g id="line2d_68">
      <g>
       <use xlink:href="#me29feb3a7a" x="568.430008" y="358.522954" style="stroke: #000000; stroke-width: 0.8"/>
      </g>
     </g>
     <g id="text_50">
      <text style="font-size: 10px; font-family: 'Noto Sans CJK SC', 'Arial', sans-serif; text-anchor: end" x="561.430008" y="362.502642" transform="rotate(-0 561.430008 362.502642)">0.3</text>
     </g>
    </g>
    <g id="ytick_15">
     <g id="line2d_69">
      <path d="M 568.430008 334.530766 
L 776.02452 334.530766 
" clip-path="url(#p80954273ff)" style="fill: none; stroke: #b0b0b0; stroke-opacity: 0.12; stroke-width: 0.8; stroke-linecap: square"/>
     </g>
     <g id="line2d_70">
      <g>
       <use xlink:href="#me29feb3a7a" x="568.430008" y="334.530766" style="stroke: #000000; stroke-width: 0.8"/>
      </g>
     </g>
     <g id="text_51">
      <text style="font-size: 10px; font-family: 'Noto Sans CJK SC', 'Arial', sans-serif; text-anchor: end" x="561.430008" y="338.510453" transform="rotate(-0 561.430008 338.510453)">0.4</text>
     </g>
    </g>
    <g id="ytick_16">
     <g id="line2d_71">
      <path d="M 568.430008 310.538577 
L 776.02452 310.538577 
" clip-path="url(#p80954273ff)" style="fill: none; stroke: #b0b0b0; stroke-opacity: 0.12; stroke-width: 0.8; stroke-linecap: square"/>
     </g>
     <g id="line2d_72">
      <g>
       <use xlink:href="#me29feb3a7a" x="568.430008" y="310.538577" style="stroke: #000000; stroke-width: 0.8"/>
      </g>
     </g>
     <g id="text_52">
      <text style="font-size: 10px; font-family: 'Noto Sans CJK SC', 'Arial', sans-serif; text-anchor: end" x="561.430008" y="314.518265" transform="rotate(-0 561.430008 314.518265)">0.5</text>
     </g>
    </g>
    <g id="ytick_17">
     <g id="line2d_73">
      <path d="M 568.430008 286.546389 
L 776.02452 286.546389 
" clip-path="url(#p80954273ff)" style="fill: none; stroke: #b0b0b0; stroke-opacity: 0.12; stroke-width: 0.8; stroke-linecap: square"/>
     </g>
     <g id="line2d_74">
      <g>
       <use xlink:href="#me29feb3a7a" x="568.430008" y="286.546389" style="stroke: #000000; stroke-width: 0.8"/>
      </g>
     </g>
     <g id="text_53">
      <text style="font-size: 10px; font-family: 'Noto Sans CJK SC', 'Arial', sans-serif; text-anchor: end" x="561.430008" y="290.526076" transform="rotate(-0 561.430008 290.526076)">0.6</text>
     </g>
    </g>
    <g id="ytick_18">
     <g id="line2d_75">
      <path d="M 568.430008 262.5542 
L 776.02452 262.5542 
" clip-path="url(#p80954273ff)" style="fill: none; stroke: #b0b0b0; stroke-opacity: 0.12; stroke-width: 0.8; stroke-linecap: square"/>
     </g>
     <g id="line2d_76">
      <g>
       <use xlink:href="#me29feb3a7a" x="568.430008" y="262.5542" style="stroke: #000000; stroke-width: 0.8"/>
      </g>
     </g>
     <g id="text_54">
      <text style="font-size: 10px; font-family: 'Noto Sans CJK SC', 'Arial', sans-serif; text-anchor: end" x="561.430008" y="266.533888" transform="rotate(-0 561.430008 266.533888)">0.7</text>
     </g>
    </g>
    <g id="text_55">
     <text style="font-size: 10px; font-family: 'Noto Sans CJK SC', 'Arial', sans-serif; text-anchor: middle" x="541.259695" y="340.528813" transform="rotate(-90 541.259695 340.528813)">归一化 train / val MSE</text>
    </g>
   </g>
   <g id="line2d_77">
    <path d="M 568.430008 190.577635 
L 569.04058 219.310819 
L 569.651152 241.051621 
L 570.261724 257.566584 
L 570.872296 270.143043 
L 571.482868 279.744752 
L 572.09344 287.09762 
L 572.704012 292.749241 
L 573.314584 297.112928 
L 573.925156 300.500756 
L 574.535728 303.148442 
L 575.146301 305.234095 
L 575.756873 306.892349 
L 576.978017 309.309159 
L 578.199161 310.950989 
L 579.420305 312.134689 
L 580.641449 313.042725 
L 582.473166 314.106238 
L 584.915454 315.22556 
L 587.968315 316.380997 
L 592.242319 317.74877 
L 597.126896 319.078917 
L 603.232617 320.489009 
L 609.94891 321.795678 
L 617.275775 322.998264 
L 625.823784 324.175478 
L 635.592938 325.293097 
L 647.193808 326.383322 
L 660.626394 327.409984 
L 676.501268 328.391391 
L 696.039575 329.362721 
L 719.851887 330.313826 
L 749.76992 331.279193 
L 786.99952 332.260454 
L 786.99952 332.260454 
" clip-path="url(#p80954273ff)" style="fill: none; stroke: #0072b2; stroke-width: 1.8; stroke-linecap: square"/>
   </g>
   <g id="line2d_78">
    <path d="M 568.430008 226.602114 
L 569.04058 266.755198 
L 569.651152 296.705618 
L 570.261724 318.941602 
L 570.872296 335.352687 
L 571.482868 347.389029 
L 572.09344 356.155209 
L 572.704012 362.486643 
L 573.314584 367.012101 
L 573.925156 370.203212 
L 574.535728 372.412802 
L 575.146301 373.904188 
L 575.756873 374.873402 
L 576.367445 375.465984 
L 576.978017 375.789646 
L 577.588589 375.923799 
L 578.809733 375.840934 
L 580.641449 375.318242 
L 584.915454 373.945571 
L 587.968315 373.21703 
L 592.242319 372.4573 
L 600.790329 371.250738 
L 620.328636 368.489729 
L 671.616692 361.058763 
L 692.376143 358.356073 
L 713.135594 355.878851 
L 735.11619 353.483764 
L 758.928501 351.11994 
L 784.572529 348.800615 
L 786.99952 348.591784 
L 786.99952 348.591784 
" clip-path="url(#p80954273ff)" style="fill: none; stroke: #d55e00; stroke-width: 1.8; stroke-linecap: square"/>
   </g>
   <g id="line2d_79">
    <path d="M 609.94891 430.49952 
L 609.94891 250.558106 
" clip-path="url(#p80954273ff)" style="fill: none; stroke-dasharray: 1,1.65; stroke-dashoffset: 0; stroke: #62676c"/>
   </g>
   <g id="patch_16">
    <path d="M 568.430008 430.49952 
L 568.430008 250.558106 
" style="fill: none; stroke: #000000; stroke-width: 0.8; stroke-linejoin: miter; stroke-linecap: square"/>
   </g>
   <g id="patch_17">
    <path d="M 568.430008 430.49952 
L 776.02452 430.49952 
" style="fill: none; stroke: #000000; stroke-width: 0.8; stroke-linejoin: miter; stroke-linecap: square"/>
   </g>
   <g id="text_56">
    <text style="font-size: 12px; font-family: 'Noto Sans CJK SC', 'Arial', sans-serif; text-anchor: middle" x="672.227264" y="244.558106" transform="rotate(-0 672.227264 244.558106)">train 仍降，val 可先回升</text>
   </g>
   <g id="legend_2">
    <g id="line2d_80">
     <path d="M 686.50327 261.325606 
L 694.50327 261.325606 
L 702.50327 261.325606 
" style="fill: none; stroke: #0072b2; stroke-width: 1.8; stroke-linecap: square"/>
    </g>
    <g id="text_57">
     <text style="font-size: 8px; font-family: 'Noto Sans CJK SC', 'Arial', sans-serif; text-anchor: start" x="708.90327" y="264.125606" transform="rotate(-0 708.90327 264.125606)">train / 初始 train</text>
    </g>
    <g id="line2d_81">
     <path d="M 686.50327 273.525606 
L 694.50327 273.525606 
L 702.50327 273.525606 
" style="fill: none; stroke: #d55e00; stroke-width: 1.8; stroke-linecap: square"/>
    </g>
    <g id="text_58">
     <text style="font-size: 8px; font-family: 'Noto Sans CJK SC', 'Arial', sans-serif; text-anchor: start" x="708.90327" y="276.325606" transform="rotate(-0 708.90327 276.325606)">actual val</text>
    </g>
   </g>
  </g>
 </g>
 <defs>
  <clipPath id="p95ef6e89e8">
   <rect x="42.329688" y="22.07375" width="733.694833" height="206.932626"/>
  </clipPath>
  <clipPath id="pd2dc344786">
   <rect x="42.329688" y="250.558106" width="207.594512" height="179.941414"/>
  </clipPath>
  <clipPath id="p5e5f54a755">
   <rect x="305.379848" y="250.558106" width="207.594513" height="179.941414"/>
  </clipPath>
  <clipPath id="p80954273ff">
   <rect x="568.430008" y="250.558106" width="207.594512" height="179.941414"/>
  </clipPath>
 </defs>
</svg>
