<?xml version="1.0" encoding="utf-8" standalone="no"?>
<!DOCTYPE svg PUBLIC "-//W3C//DTD SVG 1.1//EN"
  "http://www.w3.org/Graphics/SVG/1.1/DTD/svg11.dtd">
<svg xmlns:xlink="http://www.w3.org/1999/xlink" width="785.99952pt" height="281.99952pt" viewBox="0 0 785.99952 281.99952" xmlns="http://www.w3.org/2000/svg" version="1.1">
 <metadata>
  <rdf:RDF xmlns:dc="http://purl.org/dc/elements/1.1/" xmlns:cc="http://creativecommons.org/ns#" xmlns:rdf="http://www.w3.org/1999/02/22-rdf-syntax-ns#">
   <cc:Work>
    <dc:type rdf:resource="http://purl.org/dc/dcmitype/StillImage"/>
    <dc:date>2026-10-09T16:59:48.013455</dc:date>
    <dc:format>image/svg+xml</dc:format>
    <dc:creator>
     <cc:Agent>
      <dc:title>Matplotlib v3.10.9, https://matplotlib.org/</dc:title>
     </cc:Agent>
    </dc:creator>
   </cc:Work>
  </rdf:RDF>
 </metadata>
 <defs>
  <style type="text/css">*{stroke-linejoin: round; stroke-linecap: butt}</style>
 </defs>
 <g id="figure_1">
  <g id="patch_1">
   <path d="M 0 281.99952 
L 785.99952 281.99952 
L 785.99952 0 
L 0 0 
z
" style="fill: #ffffff"/>
  </g>
  <g id="axes_1">
   <g id="patch_2">
    <path d="M 42.329688 243.19952 
L 383.626604 243.19952 
L 383.626604 22.75125 
L 42.329688 22.75125 
z
" style="fill: #ffffff"/>
   </g>
   <g id="patch_3">
    <path d="M 42.329688 243.19952 
L 110.589071 243.19952 
L 110.589071 22.75125 
L 42.329688 22.75125 
z
" clip-path="url(#pc05b6bf206)" style="fill: #d55e00; opacity: 0.045; stroke: #d55e00; stroke-linejoin: miter"/>
   </g>
   <g id="matplotlib.axis_1">
    <g id="xtick_1">
     <g id="line2d_1">
      <path d="M 42.329688 243.19952 
L 42.329688 22.75125 
" clip-path="url(#pc05b6bf206)" style="fill: none; stroke: #b0b0b0; stroke-opacity: 0.12; stroke-width: 0.8; stroke-linecap: square"/>
     </g>
     <g id="line2d_2">
      <defs>
       <path id="ma7205c3f1a" d="M 0 0 
L 0 3.5 
" style="stroke: #000000; stroke-width: 0.8"/>
      </defs>
      <g>
       <use xlink:href="#ma7205c3f1a" x="42.329688" y="243.19952" style="stroke: #000000; stroke-width: 0.8"/>
      </g>
     </g>
     <g id="text_1">
      <text style="font-size: 10px; font-family: 'Noto Sans CJK SC', 'Arial', sans-serif; text-anchor: middle" x="42.329688" y="258.158895" transform="rotate(-0 42.329688 258.158895)">0</text>
     </g>
    </g>
    <g id="xtick_2">
     <g id="line2d_3">
      <path d="M 110.589071 243.19952 
L 110.589071 22.75125 
" clip-path="url(#pc05b6bf206)" style="fill: none; stroke: #b0b0b0; stroke-opacity: 0.12; stroke-width: 0.8; stroke-linecap: square"/>
     </g>
     <g id="line2d_4">
      <g>
       <use xlink:href="#ma7205c3f1a" x="110.589071" y="243.19952" style="stroke: #000000; stroke-width: 0.8"/>
      </g>
     </g>
     <g id="text_2">
      <text style="font-size: 10px; font-family: 'Noto Sans CJK SC', 'Arial', sans-serif; text-anchor: middle" x="110.589071" y="258.158895" transform="rotate(-0 110.589071 258.158895)">1</text>
     </g>
    </g>
    <g id="xtick_3">
     <g id="line2d_5">
      <path d="M 178.848454 243.19952 
L 178.848454 22.75125 
" clip-path="url(#pc05b6bf206)" style="fill: none; stroke: #b0b0b0; stroke-opacity: 0.12; stroke-width: 0.8; stroke-linecap: square"/>
     </g>
     <g id="line2d_6">
      <g>
       <use xlink:href="#ma7205c3f1a" x="178.848454" y="243.19952" style="stroke: #000000; stroke-width: 0.8"/>
      </g>
     </g>
     <g id="text_3">
      <text style="font-size: 10px; font-family: 'Noto Sans CJK SC', 'Arial', sans-serif; text-anchor: middle" x="178.848454" y="258.158895" transform="rotate(-0 178.848454 258.158895)">2</text>
     </g>
    </g>
    <g id="xtick_4">
     <g id="line2d_7">
      <path d="M 247.107837 243.19952 
L 247.107837 22.75125 
" clip-path="url(#pc05b6bf206)" style="fill: none; stroke: #b0b0b0; stroke-opacity: 0.12; stroke-width: 0.8; stroke-linecap: square"/>
     </g>
     <g id="line2d_8">
      <g>
       <use xlink:href="#ma7205c3f1a" x="247.107837" y="243.19952" style="stroke: #000000; stroke-width: 0.8"/>
      </g>
     </g>
     <g id="text_4">
      <text style="font-size: 10px; font-family: 'Noto Sans CJK SC', 'Arial', sans-serif; text-anchor: middle" x="247.107837" y="258.158895" transform="rotate(-0 247.107837 258.158895)">3</text>
     </g>
    </g>
    <g id="xtick_5">
     <g id="line2d_9">
      <path d="M 315.367221 243.19952 
L 315.367221 22.75125 
" clip-path="url(#pc05b6bf206)" style="fill: none; stroke: #b0b0b0; stroke-opacity: 0.12; stroke-width: 0.8; stroke-linecap: square"/>
     </g>
     <g id="line2d_10">
      <g>
       <use xlink:href="#ma7205c3f1a" x="315.367221" y="243.19952" style="stroke: #000000; stroke-width: 0.8"/>
      </g>
     </g>
     <g id="text_5">
      <text style="font-size: 10px; font-family: 'Noto Sans CJK SC', 'Arial', sans-serif; text-anchor: middle" x="315.367221" y="258.158895" transform="rotate(-0 315.367221 258.158895)">4</text>
     </g>
    </g>
    <g id="xtick_6">
     <g id="line2d_11">
      <path d="M 383.626604 243.19952 
L 383.626604 22.75125 
" clip-path="url(#pc05b6bf206)" style="fill: none; stroke: #b0b0b0; stroke-opacity: 0.12; stroke-width: 0.8; stroke-linecap: square"/>
     </g>
     <g id="line2d_12">
      <g>
       <use xlink:href="#ma7205c3f1a" x="383.626604" y="243.19952" style="stroke: #000000; stroke-width: 0.8"/>
      </g>
     </g>
     <g id="text_6">
      <text style="font-size: 10px; font-family: 'Noto Sans CJK SC', 'Arial', sans-serif; text-anchor: middle" x="383.626604" y="258.158895" transform="rotate(-0 383.626604 258.158895)">5</text>
     </g>
    </g>
    <g id="text_7">
     <text style="font-size: 10px; font-family: 'Noto Sans CJK SC', 'Arial', sans-serif; text-anchor: middle" x="212.978146" y="272.508895" transform="rotate(-0 212.978146 272.508895)">t / t*（期望风险最低点归一化为 1）</text>
    </g>
   </g>
   <g id="matplotlib.axis_2">
    <g id="ytick_1">
     <g id="line2d_13">
      <path d="M 42.329688 243.19952 
L 383.626604 243.19952 
" clip-path="url(#pc05b6bf206)" style="fill: none; stroke: #b0b0b0; stroke-opacity: 0.12; stroke-width: 0.8; stroke-linecap: square"/>
     </g>
     <g id="line2d_14">
      <defs>
       <path id="m6ca97fc8d6" d="M 0 0 
L -3.5 0 
" style="stroke: #000000; stroke-width: 0.8"/>
      </defs>
      <g>
       <use xlink:href="#m6ca97fc8d6" x="42.329688" y="243.19952" style="stroke: #000000; stroke-width: 0.8"/>
      </g>
     </g>
     <g id="text_8">
      <text style="font-size: 10px; font-family: 'Noto Sans CJK SC', 'Arial', sans-serif; text-anchor: end" x="35.329688" y="247.179207" transform="rotate(-0 35.329688 247.179207)">0.0</text>
     </g>
    </g>
    <g id="ytick_2">
     <g id="line2d_15">
      <path d="M 42.329688 199.109866 
L 383.626604 199.109866 
" clip-path="url(#pc05b6bf206)" style="fill: none; stroke: #b0b0b0; stroke-opacity: 0.12; stroke-width: 0.8; stroke-linecap: square"/>
     </g>
     <g id="line2d_16">
      <g>
       <use xlink:href="#m6ca97fc8d6" x="42.329688" y="199.109866" style="stroke: #000000; stroke-width: 0.8"/>
      </g>
     </g>
     <g id="text_9">
      <text style="font-size: 10px; font-family: 'Noto Sans CJK SC', 'Arial', sans-serif; text-anchor: end" x="35.329688" y="203.089553" transform="rotate(-0 35.329688 203.089553)">0.1</text>
     </g>
    </g>
    <g id="ytick_3">
     <g id="line2d_17">
      <path d="M 42.329688 155.020212 
L 383.626604 155.020212 
" clip-path="url(#pc05b6bf206)" style="fill: none; stroke: #b0b0b0; stroke-opacity: 0.12; stroke-width: 0.8; stroke-linecap: square"/>
     </g>
     <g id="line2d_18">
      <g>
       <use xlink:href="#m6ca97fc8d6" x="42.329688" y="155.020212" style="stroke: #000000; stroke-width: 0.8"/>
      </g>
     </g>
     <g id="text_10">
      <text style="font-size: 10px; font-family: 'Noto Sans CJK SC', 'Arial', sans-serif; text-anchor: end" x="35.329688" y="158.999899" transform="rotate(-0 35.329688 158.999899)">0.2</text>
     </g>
    </g>
    <g id="ytick_4">
     <g id="line2d_19">
      <path d="M 42.329688 110.930558 
L 383.626604 110.930558 
" clip-path="url(#pc05b6bf206)" style="fill: none; stroke: #b0b0b0; stroke-opacity: 0.12; stroke-width: 0.8; stroke-linecap: square"/>
     </g>
     <g id="line2d_20">
      <g>
       <use xlink:href="#m6ca97fc8d6" x="42.329688" y="110.930558" style="stroke: #000000; stroke-width: 0.8"/>
      </g>
     </g>
     <g id="text_11">
      <text style="font-size: 10px; font-family: 'Noto Sans CJK SC', 'Arial', sans-serif; text-anchor: end" x="35.329688" y="114.910245" transform="rotate(-0 35.329688 114.910245)">0.3</text>
     </g>
    </g>
    <g id="ytick_5">
     <g id="line2d_21">
      <path d="M 42.329688 66.840904 
L 383.626604 66.840904 
" clip-path="url(#pc05b6bf206)" style="fill: none; stroke: #b0b0b0; stroke-opacity: 0.12; stroke-width: 0.8; stroke-linecap: square"/>
     </g>
     <g id="line2d_22">
      <g>
       <use xlink:href="#m6ca97fc8d6" x="42.329688" y="66.840904" style="stroke: #000000; stroke-width: 0.8"/>
      </g>
     </g>
     <g id="text_12">
      <text style="font-size: 10px; font-family: 'Noto Sans CJK SC', 'Arial', sans-serif; text-anchor: end" x="35.329688" y="70.820591" transform="rotate(-0 35.329688 70.820591)">0.4</text>
     </g>
    </g>
    <g id="ytick_6">
     <g id="line2d_23">
      <path d="M 42.329688 22.75125 
L 383.626604 22.75125 
" clip-path="url(#pc05b6bf206)" style="fill: none; stroke: #b0b0b0; stroke-opacity: 0.12; stroke-width: 0.8; stroke-linecap: square"/>
     </g>
     <g id="line2d_24">
      <g>
       <use xlink:href="#m6ca97fc8d6" x="42.329688" y="22.75125" style="stroke: #000000; stroke-width: 0.8"/>
      </g>
     </g>
     <g id="text_13">
      <text style="font-size: 10px; font-family: 'Noto Sans CJK SC', 'Arial', sans-serif; text-anchor: end" x="35.329688" y="26.730937" transform="rotate(-0 35.329688 26.730937)">0.5</text>
     </g>
    </g>
    <g id="text_14">
     <text style="font-size: 10px; font-family: 'Noto Sans CJK SC', 'Arial', sans-serif; text-anchor: middle" x="15.159375" y="132.975385" transform="rotate(-90 15.159375 132.975385)">干净 audit MSE</text>
    </g>
   </g>
   <g id="line2d_25">
    <path d="M 44.550458 -1 
L 45.341131 30.069369 
L 46.344945 59.923982 
L 47.34876 82.400833 
L 48.352574 99.261119 
L 49.356389 111.880369 
L 50.360203 121.313702 
L 51.364018 128.361585 
L 52.367832 133.627511 
L 53.371647 137.564841 
L 54.375461 140.513389 
L 55.379275 142.727462 
L 56.38309 144.397116 
L 57.386904 145.664193 
L 58.390719 146.634389 
L 59.394533 147.386322 
L 61.402162 148.453629 
L 63.409791 149.173006 
L 66.421235 149.94 
L 71.440307 150.911293 
L 79.470823 152.20077 
L 86.497524 153.094707 
L 93.524225 153.733978 
L 100.550926 154.122783 
L 107.577627 154.288313 
L 115.608143 154.248108 
L 124.642473 153.969504 
L 134.680618 153.440648 
L 147.730206 152.510401 
L 163.791237 151.126907 
L 187.882784 148.803052 
L 276.218457 140.104351 
L 314.363406 136.655297 
L 353.51217 133.342835 
L 393.664748 130.167975 
L 435.824956 127.056267 
L 479.992792 124.019516 
L 526.168257 121.06882 
L 574.351351 118.214202 
L 624.542074 115.46389 
L 677.74424 112.774976 
L 733.95785 110.162192 
L 786.99952 107.88949 
L 786.99952 107.88949 
" clip-path="url(#pc05b6bf206)" style="fill: none; stroke: #62676c; stroke-width: 1.8; stroke-linecap: square"/>
   </g>
   <g id="line2d_26">
    <path d="M 44.393021 -1 
L 45.341131 38.492097 
L 46.344945 70.251321 
L 47.34876 94.449386 
L 48.352574 112.95696 
L 49.356389 127.178872 
L 50.360203 138.170544 
L 51.364018 146.725205 
L 52.367832 153.439272 
L 53.371647 158.761355 
L 54.375461 163.029029 
L 55.379275 166.496426 
L 56.38309 169.35495 
L 57.386904 171.748828 
L 58.390719 173.786804 
L 60.398348 177.103124 
L 62.405977 179.747632 
L 64.413606 181.974229 
L 67.425049 184.832671 
L 70.436492 187.328116 
L 74.45175 190.288723 
L 78.467008 192.941702 
L 82.482266 195.346838 
L 87.501338 198.056734 
L 92.52041 200.480863 
L 97.539483 202.65631 
L 102.558555 204.613921 
L 108.581442 206.712219 
L 114.604329 208.572927 
L 121.63103 210.486285 
L 128.657731 212.162845 
L 136.688247 213.8341 
L 144.718762 215.285593 
L 153.753093 216.699733 
L 163.791237 218.046761 
L 174.833196 219.306943 
L 187.882784 220.557893 
L 201.936187 221.679103 
L 217.997218 222.7406 
L 237.069693 223.772604 
L 259.153611 224.74111 
L 286.256601 225.694606 
L 318.378664 226.593188 
L 357.527428 227.459377 
L 405.710522 228.295147 
L 464.935575 229.090992 
L 537.210216 229.8315 
L 625.545889 230.506426 
L 733.95785 231.105206 
L 786.99952 231.332583 
L 786.99952 231.332583 
" clip-path="url(#pc05b6bf206)" style="fill: none; stroke: #0072b2; stroke-width: 1.8; stroke-linecap: square"/>
   </g>
   <g id="line2d_27">
    <path d="M 42.329688 243.19952 
L 43.333502 240.382004 
L 44.337316 237.144438 
L 45.341131 234.776791 
L 47.34876 231.150967 
L 50.360203 226.342678 
L 53.371647 222.003006 
L 55.379275 219.430556 
L 57.386904 217.114885 
L 59.394533 215.03492 
L 62.405977 212.295937 
L 65.41742 209.930554 
L 68.428863 207.856693 
L 72.444121 205.433504 
L 76.459379 203.297729 
L 81.478451 200.913732 
L 87.501338 198.344694 
L 94.528039 195.624857 
L 102.558555 192.777 
L 111.592885 189.825236 
L 121.63103 186.799342 
L 131.669174 184.001194 
L 142.711133 181.152573 
L 154.756907 178.285101 
L 167.806495 175.424609 
L 181.859897 172.590415 
L 196.917114 169.795571 
L 212.978146 167.047736 
L 230.042991 164.35034 
L 249.115466 161.562375 
L 270.19557 158.712852 
L 293.283302 155.823686 
L 318.378664 152.911503 
L 345.481654 149.989504 
L 375.596088 146.971993 
L 407.718151 143.980215 
L 441.847842 141.023472 
L 478.988977 138.033715 
L 518.137741 135.110226 
L 559.294134 132.26201 
L 602.458156 129.497393 
L 648.633621 126.766381 
L 696.816715 124.140287 
L 748.011253 121.573204 
L 786.99952 119.756428 
L 786.99952 119.756428 
" clip-path="url(#pc05b6bf206)" style="fill: none; stroke: #d55e00; stroke-width: 1.8; stroke-linecap: square"/>
   </g>
   <g id="line2d_28">
    <path d="M 110.589071 243.19952 
L 110.589071 22.75125 
" clip-path="url(#pc05b6bf206)" style="fill: none; stroke-dasharray: 1.1,1.815; stroke-dashoffset: 0; stroke: #62676c; stroke-width: 1.1"/>
   </g>
   <g id="patch_4">
    <path d="M 42.329688 243.19952 
L 42.329688 22.75125 
" style="fill: none; stroke: #000000; stroke-width: 0.8; stroke-linejoin: miter; stroke-linecap: square"/>
   </g>
   <g id="patch_5">
    <path d="M 42.329688 243.19952 
L 383.626604 243.19952 
" style="fill: none; stroke: #000000; stroke-width: 0.8; stroke-linejoin: miter; stroke-linecap: square"/>
   </g>
   <g id="text_15">
    <text style="font-size: 12px; font-family: 'Noto Sans CJK SC', 'Arial', sans-serif; text-anchor: middle" x="212.978146" y="16.75125" transform="rotate(-0 212.978146 16.75125)">噪声损害在最低点之前就积累</text>
   </g>
   <g id="legend_1">
    <g id="line2d_29">
     <path d="M 275.005041 34.864687 
L 284.005041 34.864687 
L 293.005041 34.864687 
" style="fill: none; stroke: #62676c; stroke-width: 1.8; stroke-linecap: square"/>
    </g>
    <g id="text_16">
     <text style="font-size: 9px; font-family: 'Noto Sans CJK SC', 'Arial', sans-serif; text-anchor: start" x="300.205041" y="38.014687" transform="rotate(-0 300.205041 38.014687)">期望风险 R=B+σ²N</text>
    </g>
    <g id="line2d_30">
     <path d="M 275.005041 48.589687 
L 284.005041 48.589687 
L 293.005041 48.589687 
" style="fill: none; stroke: #0072b2; stroke-width: 1.8; stroke-linecap: square"/>
    </g>
    <g id="text_17">
     <text style="font-size: 9px; font-family: 'Noto Sans CJK SC', 'Arial', sans-serif; text-anchor: start" x="300.205041" y="51.739687" transform="rotate(-0 300.205041 51.739687)">信号误差 B</text>
    </g>
    <g id="line2d_31">
     <path d="M 275.005041 62.314687 
L 284.005041 62.314687 
L 293.005041 62.314687 
" style="fill: none; stroke: #d55e00; stroke-width: 1.8; stroke-linecap: square"/>
    </g>
    <g id="text_18">
     <text style="font-size: 9px; font-family: 'Noto Sans CJK SC', 'Arial', sans-serif; text-anchor: start" x="300.205041" y="65.464687" transform="rotate(-0 300.205041 65.464687)">噪声损害 σ²N</text>
    </g>
   </g>
  </g>
  <g id="axes_2">
   <g id="patch_6">
    <path d="M 434.727604 243.19952 
L 776.02452 243.19952 
L 776.02452 22.75125 
L 434.727604 22.75125 
z
" style="fill: #ffffff"/>
   </g>
   <g id="matplotlib.axis_3">
    <g id="xtick_7">
     <g id="line2d_32">
      <path d="M 494.542527 243.19952 
L 494.542527 22.75125 
" clip-path="url(#p46a2ba41a1)" style="fill: none; stroke: #b0b0b0; stroke-opacity: 0.12; stroke-width: 0.8; stroke-linecap: square"/>
     </g>
     <g id="line2d_33">
      <g>
       <use xlink:href="#ma7205c3f1a" x="494.542527" y="243.19952" style="stroke: #000000; stroke-width: 0.8"/>
      </g>
     </g>
     <g id="text_19">
      <text style="font-size: 10px; font-family: 'Noto Sans CJK SC', 'Arial', sans-serif; text-anchor: middle" x="494.542527" y="258.158895" transform="rotate(-0 494.542527 258.158895)">1</text>
     </g>
    </g>
    <g id="xtick_8">
     <g id="line2d_34">
      <path d="M 564.913025 243.19952 
L 564.913025 22.75125 
" clip-path="url(#p46a2ba41a1)" style="fill: none; stroke: #b0b0b0; stroke-opacity: 0.12; stroke-width: 0.8; stroke-linecap: square"/>
     </g>
     <g id="line2d_35">
      <g>
       <use xlink:href="#ma7205c3f1a" x="564.913025" y="243.19952" style="stroke: #000000; stroke-width: 0.8"/>
      </g>
     </g>
     <g id="text_20">
      <text style="font-size: 10px; font-family: 'Noto Sans CJK SC', 'Arial', sans-serif; text-anchor: middle" x="564.913025" y="258.158895" transform="rotate(-0 564.913025 258.158895)">2</text>
     </g>
    </g>
    <g id="xtick_9">
     <g id="line2d_36">
      <path d="M 635.283524 243.19952 
L 635.283524 22.75125 
" clip-path="url(#p46a2ba41a1)" style="fill: none; stroke: #b0b0b0; stroke-opacity: 0.12; stroke-width: 0.8; stroke-linecap: square"/>
     </g>
     <g id="line2d_37">
      <g>
       <use xlink:href="#ma7205c3f1a" x="635.283524" y="243.19952" style="stroke: #000000; stroke-width: 0.8"/>
      </g>
     </g>
     <g id="text_21">
      <text style="font-size: 10px; font-family: 'Noto Sans CJK SC', 'Arial', sans-serif; text-anchor: middle" x="635.283524" y="258.158895" transform="rotate(-0 635.283524 258.158895)">3</text>
     </g>
    </g>
    <g id="xtick_10">
     <g id="line2d_38">
      <path d="M 705.654022 243.19952 
L 705.654022 22.75125 
" clip-path="url(#p46a2ba41a1)" style="fill: none; stroke: #b0b0b0; stroke-opacity: 0.12; stroke-width: 0.8; stroke-linecap: square"/>
     </g>
     <g id="line2d_39">
      <g>
       <use xlink:href="#ma7205c3f1a" x="705.654022" y="243.19952" style="stroke: #000000; stroke-width: 0.8"/>
      </g>
     </g>
     <g id="text_22">
      <text style="font-size: 10px; font-family: 'Noto Sans CJK SC', 'Arial', sans-serif; text-anchor: middle" x="705.654022" y="258.158895" transform="rotate(-0 705.654022 258.158895)">4</text>
     </g>
    </g>
    <g id="xtick_11">
     <g id="line2d_40">
      <path d="M 776.02452 243.19952 
L 776.02452 22.75125 
" clip-path="url(#p46a2ba41a1)" style="fill: none; stroke: #b0b0b0; stroke-opacity: 0.12; stroke-width: 0.8; stroke-linecap: square"/>
     </g>
     <g id="line2d_41">
      <g>
       <use xlink:href="#ma7205c3f1a" x="776.02452" y="243.19952" style="stroke: #000000; stroke-width: 0.8"/>
      </g>
     </g>
     <g id="text_23">
      <text style="font-size: 10px; font-family: 'Noto Sans CJK SC', 'Arial', sans-serif; text-anchor: middle" x="776.02452" y="258.158895" transform="rotate(-0 776.02452 258.158895)">5</text>
     </g>
    </g>
    <g id="text_24">
     <text style="font-size: 10px; font-family: 'Noto Sans CJK SC', 'Arial', sans-serif; text-anchor: middle" x="605.376062" y="272.408895" transform="rotate(-0 605.376062 272.408895)">t / t*</text>
    </g>
   </g>
   <g id="matplotlib.axis_4">
    <g id="ytick_7">
     <g id="line2d_42">
      <path d="M 434.727604 243.19952 
L 776.02452 243.19952 
" clip-path="url(#p46a2ba41a1)" style="fill: none; stroke: #b0b0b0; stroke-opacity: 0.12; stroke-width: 0.8; stroke-linecap: square"/>
     </g>
     <g id="line2d_43">
      <g>
       <use xlink:href="#m6ca97fc8d6" x="434.727604" y="243.19952" style="stroke: #000000; stroke-width: 0.8"/>
      </g>
     </g>
     <g id="text_25">
      <!-- $\mathdefault{10^{-4}}$ -->
      <g transform="translate(408.427604 247.179207)">
       <text>
        <tspan x="0" y="-0.692188" style="font-size: 10px; font-family: 'Noto Sans CJK SC'">1</tspan>
        <tspan x="5.549988" y="-0.692188" style="font-size: 10px; font-family: 'Noto Sans CJK SC'">0</tspan>
        <tspan x="11.19978" y="-4.684375" style="font-size: 7px; font-family: 'Noto Sans CJK SC'">−</tspan>
        <tspan x="15.084772" y="-4.684375" style="font-size: 7px; font-family: 'Noto Sans CJK SC'">4</tspan>
       </text>
      </g>
     </g>
    </g>
    <g id="ytick_8">
     <g id="line2d_44">
      <path d="M 434.727604 158.478848 
L 776.02452 158.478848 
" clip-path="url(#p46a2ba41a1)" style="fill: none; stroke: #b0b0b0; stroke-opacity: 0.12; stroke-width: 0.8; stroke-linecap: square"/>
     </g>
     <g id="line2d_45">
      <g>
       <use xlink:href="#m6ca97fc8d6" x="434.727604" y="158.478848" style="stroke: #000000; stroke-width: 0.8"/>
      </g>
     </g>
     <g id="text_26">
      <!-- $\mathdefault{10^{-3}}$ -->
      <g transform="translate(408.427604 162.458536)">
       <text>
        <tspan x="0" y="-0.59375" style="font-size: 10px; font-family: 'Noto Sans CJK SC'">1</tspan>
        <tspan x="5.549988" y="-0.59375" style="font-size: 10px; font-family: 'Noto Sans CJK SC'">0</tspan>
        <tspan x="11.19978" y="-4.585938" style="font-size: 7px; font-family: 'Noto Sans CJK SC'">−</tspan>
        <tspan x="15.084772" y="-4.585938" style="font-size: 7px; font-family: 'Noto Sans CJK SC'">3</tspan>
       </text>
      </g>
     </g>
    </g>
    <g id="ytick_9">
     <g id="line2d_46">
      <path d="M 434.727604 73.758177 
L 776.02452 73.758177 
" clip-path="url(#p46a2ba41a1)" style="fill: none; stroke: #b0b0b0; stroke-opacity: 0.12; stroke-width: 0.8; stroke-linecap: square"/>
     </g>
     <g id="line2d_47">
      <g>
       <use xlink:href="#m6ca97fc8d6" x="434.727604" y="73.758177" style="stroke: #000000; stroke-width: 0.8"/>
      </g>
     </g>
     <g id="text_27">
      <!-- $\mathdefault{10^{-2}}$ -->
      <g transform="translate(408.427604 77.737864)">
       <text>
        <tspan x="0" y="-0.59375" style="font-size: 10px; font-family: 'Noto Sans CJK SC'">1</tspan>
        <tspan x="5.549988" y="-0.59375" style="font-size: 10px; font-family: 'Noto Sans CJK SC'">0</tspan>
        <tspan x="11.19978" y="-4.585938" style="font-size: 7px; font-family: 'Noto Sans CJK SC'">−</tspan>
        <tspan x="15.084772" y="-4.585938" style="font-size: 7px; font-family: 'Noto Sans CJK SC'">2</tspan>
       </text>
      </g>
     </g>
    </g>
    <g id="ytick_10">
     <g id="line2d_48">
      <defs>
       <path id="mb78cd8db0d" d="M 0 0 
L -2 0 
" style="stroke: #000000; stroke-width: 0.6"/>
      </defs>
      <g>
       <use xlink:href="#mb78cd8db0d" x="434.727604" y="217.696057" style="stroke: #000000; stroke-width: 0.6"/>
      </g>
     </g>
    </g>
    <g id="ytick_11">
     <g id="line2d_49">
      <g>
       <use xlink:href="#mb78cd8db0d" x="434.727604" y="202.777487" style="stroke: #000000; stroke-width: 0.6"/>
      </g>
     </g>
    </g>
    <g id="ytick_12">
     <g id="line2d_50">
      <g>
       <use xlink:href="#mb78cd8db0d" x="434.727604" y="192.192593" style="stroke: #000000; stroke-width: 0.6"/>
      </g>
     </g>
    </g>
    <g id="ytick_13">
     <g id="line2d_51">
      <g>
       <use xlink:href="#mb78cd8db0d" x="434.727604" y="183.982312" style="stroke: #000000; stroke-width: 0.6"/>
      </g>
     </g>
    </g>
    <g id="ytick_14">
     <g id="line2d_52">
      <g>
       <use xlink:href="#mb78cd8db0d" x="434.727604" y="177.274023" style="stroke: #000000; stroke-width: 0.6"/>
      </g>
     </g>
    </g>
    <g id="ytick_15">
     <g id="line2d_53">
      <g>
       <use xlink:href="#mb78cd8db0d" x="434.727604" y="171.602246" style="stroke: #000000; stroke-width: 0.6"/>
      </g>
     </g>
    </g>
    <g id="ytick_16">
     <g id="line2d_54">
      <g>
       <use xlink:href="#mb78cd8db0d" x="434.727604" y="166.68913" style="stroke: #000000; stroke-width: 0.6"/>
      </g>
     </g>
    </g>
    <g id="ytick_17">
     <g id="line2d_55">
      <g>
       <use xlink:href="#mb78cd8db0d" x="434.727604" y="162.355454" style="stroke: #000000; stroke-width: 0.6"/>
      </g>
     </g>
    </g>
    <g id="ytick_18">
     <g id="line2d_56">
      <g>
       <use xlink:href="#mb78cd8db0d" x="434.727604" y="132.975385" style="stroke: #000000; stroke-width: 0.6"/>
      </g>
     </g>
    </g>
    <g id="ytick_19">
     <g id="line2d_57">
      <g>
       <use xlink:href="#mb78cd8db0d" x="434.727604" y="118.056815" style="stroke: #000000; stroke-width: 0.6"/>
      </g>
     </g>
    </g>
    <g id="ytick_20">
     <g id="line2d_58">
      <g>
       <use xlink:href="#mb78cd8db0d" x="434.727604" y="107.471922" style="stroke: #000000; stroke-width: 0.6"/>
      </g>
     </g>
    </g>
    <g id="ytick_21">
     <g id="line2d_59">
      <g>
       <use xlink:href="#mb78cd8db0d" x="434.727604" y="99.26164" style="stroke: #000000; stroke-width: 0.6"/>
      </g>
     </g>
    </g>
    <g id="ytick_22">
     <g id="line2d_60">
      <g>
       <use xlink:href="#mb78cd8db0d" x="434.727604" y="92.553352" style="stroke: #000000; stroke-width: 0.6"/>
      </g>
     </g>
    </g>
    <g id="ytick_23">
     <g id="line2d_61">
      <g>
       <use xlink:href="#mb78cd8db0d" x="434.727604" y="86.881575" style="stroke: #000000; stroke-width: 0.6"/>
      </g>
     </g>
    </g>
    <g id="ytick_24">
     <g id="line2d_62">
      <g>
       <use xlink:href="#mb78cd8db0d" x="434.727604" y="81.968458" style="stroke: #000000; stroke-width: 0.6"/>
      </g>
     </g>
    </g>
    <g id="ytick_25">
     <g id="line2d_63">
      <g>
       <use xlink:href="#mb78cd8db0d" x="434.727604" y="77.634782" style="stroke: #000000; stroke-width: 0.6"/>
      </g>
     </g>
    </g>
    <g id="ytick_26">
     <g id="line2d_64">
      <g>
       <use xlink:href="#mb78cd8db0d" x="434.727604" y="48.254713" style="stroke: #000000; stroke-width: 0.6"/>
      </g>
     </g>
    </g>
    <g id="ytick_27">
     <g id="line2d_65">
      <g>
       <use xlink:href="#mb78cd8db0d" x="434.727604" y="33.336144" style="stroke: #000000; stroke-width: 0.6"/>
      </g>
     </g>
    </g>
    <g id="ytick_28">
     <g id="line2d_66">
      <g>
       <use xlink:href="#mb78cd8db0d" x="434.727604" y="22.75125" style="stroke: #000000; stroke-width: 0.6"/>
      </g>
     </g>
    </g>
    <g id="text_28">
     <text style="font-size: 10px; font-family: 'Noto Sans CJK SC', 'Arial', sans-serif; text-anchor: middle" x="402.136979" y="132.975385" transform="rotate(-90 402.136979 132.975385)">每训练一步的边际变化</text>
    </g>
   </g>
   <g id="line2d_67">
    <path d="M 434.727604 64.408088 
L 436.779489 80.315256 
L 438.831374 94.18402 
L 440.199298 102.141616 
L 441.567221 109.030986 
L 442.935145 114.886018 
L 444.303068 119.792747 
L 445.670992 123.872585 
L 447.038915 127.262276 
L 448.406839 130.096549 
L 449.774762 132.496603 
L 451.826648 135.500508 
L 453.878533 138.014753 
L 456.61438 140.901728 
L 460.034189 144.094568 
L 464.821921 148.190903 
L 471.661539 153.701942 
L 479.86908 160.022874 
L 488.760582 166.592297 
L 498.336047 173.376393 
L 507.911512 179.87914 
L 517.486976 186.113768 
L 527.062441 192.088505 
L 536.637905 197.808534 
L 546.21337 203.27756 
L 555.788835 208.498935 
L 565.364299 213.476385 
L 574.939764 218.214448 
L 584.515228 222.718697 
L 594.774655 227.292836 
L 605.034081 231.615854 
L 615.293507 235.698622 
L 625.552934 239.553061 
L 636.496322 243.427133 
L 647.43971 247.071965 
L 659.06706 250.711734 
L 671.378371 254.325429 
L 684.373645 257.896454 
L 698.05288 261.412808 
L 712.416077 264.866976 
L 727.463235 268.255573 
L 743.878317 271.718637 
L 761.661323 275.23382 
L 776.02452 277.918401 
L 776.02452 277.918401 
" clip-path="url(#p46a2ba41a1)" style="fill: none; stroke: #0072b2; stroke-width: 1.8; stroke-linecap: square"/>
   </g>
   <g id="line2d_68">
    <path d="M 434.727604 115.855646 
L 436.779489 119.434649 
L 446.354954 137.035009 
L 449.090801 141.33786 
L 451.826648 145.173693 
L 454.562495 148.550606 
L 457.298342 151.500605 
L 460.034189 154.068628 
L 462.770036 156.304784 
L 465.505883 158.259111 
L 468.24173 159.978336 
L 471.661539 161.859709 
L 475.765309 163.813832 
L 479.86908 165.523898 
L 485.340774 167.540744 
L 492.180391 169.787796 
L 501.071894 172.441162 
L 512.699244 175.652426 
L 526.378479 179.189646 
L 540.741676 182.670675 
L 555.104873 185.919417 
L 569.46807 188.937178 
L 583.831267 191.7302 
L 598.878425 194.427791 
L 614.609546 197.016785 
L 631.024628 199.490337 
L 648.807633 201.937378 
L 667.958563 204.338404 
L 688.477415 206.683031 
L 711.048153 209.037665 
L 736.354738 211.45381 
L 765.765094 214.032293 
L 776.02452 214.885461 
L 776.02452 214.885461 
" clip-path="url(#p46a2ba41a1)" style="fill: none; stroke: #d55e00; stroke-width: 1.8; stroke-linecap: square"/>
   </g>
   <g id="line2d_69">
    <path d="M 494.02546 243.19952 
L 494.02546 22.75125 
" clip-path="url(#p46a2ba41a1)" style="fill: none; stroke-dasharray: 1.1,1.815; stroke-dashoffset: 0; stroke: #62676c; stroke-width: 1.1"/>
   </g>
   <g id="patch_7">
    <path d="M 434.727604 243.19952 
L 434.727604 22.75125 
" style="fill: none; stroke: #000000; stroke-width: 0.8; stroke-linejoin: miter; stroke-linecap: square"/>
   </g>
   <g id="patch_8">
    <path d="M 434.727604 243.19952 
L 776.02452 243.19952 
" style="fill: none; stroke: #000000; stroke-width: 0.8; stroke-linejoin: miter; stroke-linecap: square"/>
   </g>
   <g id="text_29">
    <text style="font-size: 12px; font-family: 'Noto Sans CJK SC', 'Arial', sans-serif; text-anchor: middle" x="605.376062" y="16.75125" transform="rotate(-0 605.376062 16.75125)">最低点：学习收益恰好抵消噪声损害</text>
   </g>
   <g id="legend_2">
    <g id="line2d_70">
     <path d="M 659.042801 35.044687 
L 668.042801 35.044687 
L 677.042801 35.044687 
" style="fill: none; stroke: #0072b2; stroke-width: 1.8; stroke-linecap: square"/>
    </g>
    <g id="text_30">
     <text style="font-size: 9px; font-family: 'Noto Sans CJK SC', 'Arial', sans-serif; text-anchor: start" x="684.242801" y="38.194687" transform="rotate(-0 684.242801 38.194687)">信号学习收益 −B′(t)</text>
    </g>
    <g id="line2d_71">
     <path d="M 659.042801 49.326563 
L 668.042801 49.326563 
L 677.042801 49.326563 
" style="fill: none; stroke: #d55e00; stroke-width: 1.8; stroke-linecap: square"/>
    </g>
    <g id="text_31">
     <text style="font-size: 9px; font-family: 'Noto Sans CJK SC', 'Arial', sans-serif; text-anchor: start" x="684.242801" y="52.476562" transform="rotate(-0 684.242801 52.476562)">噪声损害速度 σ²N′(t)</text>
    </g>
   </g>
  </g>
 </g>
 <defs>
  <clipPath id="pc05b6bf206">
   <rect x="42.329688" y="22.75125" width="341.296916" height="220.44827"/>
  </clipPath>
  <clipPath id="p46a2ba41a1">
   <rect x="434.727604" y="22.75125" width="341.296916" height="220.44827"/>
  </clipPath>
 </defs>
</svg>
